<?xml version="1.0" encoding="UTF-8" standalone="no"?>
<!-- Created with Inkscape (http://www.inkscape.org/) -->

<svg
   version="1.1"
   id="svg209"
   xml:space="preserve"
   width="720"
   height="268"
   viewBox="0 0 720 268"
   sodipodi:docname="Partial effect.svg"
   inkscape:version="1.1 (c68e22c387, 2021-05-23)"
   xmlns:inkscape="http://www.inkscape.org/namespaces/inkscape"
   xmlns:sodipodi="http://sodipodi.sourceforge.net/DTD/sodipodi-0.dtd"
   xmlns="http://www.w3.org/2000/svg"
   xmlns:svg="http://www.w3.org/2000/svg"><defs
     id="defs213"><clipPath
       clipPathUnits="userSpaceOnUse"
       id="clipPath261"><path
         d="M 0,0 H 135 V 201.6 H 0 Z"
         id="path259" /></clipPath><clipPath
       clipPathUnits="userSpaceOnUse"
       id="clipPath329"><path
         d="M 38.02,57.02 H 125.5 V 182.59 H 38.02 Z"
         id="path327" /></clipPath><clipPath
       clipPathUnits="userSpaceOnUse"
       id="clipPath351"><path
         d="M 173.02,57.02 H 260.5 V 182.59 H 173.02 Z"
         id="path349" /></clipPath><clipPath
       clipPathUnits="userSpaceOnUse"
       id="clipPath387"><path
         d="M 135,0 H 270 V 201.6 H 135 Z"
         id="path385" /></clipPath><clipPath
       clipPathUnits="userSpaceOnUse"
       id="clipPath451"><path
         d="M 173.02,57.02 H 260.5 V 182.59 H 173.02 Z"
         id="path449" /></clipPath><clipPath
       clipPathUnits="userSpaceOnUse"
       id="clipPath473"><path
         d="M 308.02,57.02 H 395.5 V 182.59 H 308.02 Z"
         id="path471" /></clipPath><clipPath
       clipPathUnits="userSpaceOnUse"
       id="clipPath517"><path
         d="M 270,0 H 405 V 201.6 H 270 Z"
         id="path515" /></clipPath><clipPath
       clipPathUnits="userSpaceOnUse"
       id="clipPath581"><path
         d="M 308.02,57.02 H 395.5 V 182.59 H 308.02 Z"
         id="path579" /></clipPath><clipPath
       clipPathUnits="userSpaceOnUse"
       id="clipPath603"><path
         d="M 443.02,57.02 H 530.5 V 182.59 H 443.02 Z"
         id="path601" /></clipPath><clipPath
       clipPathUnits="userSpaceOnUse"
       id="clipPath641"><path
         d="M 405,0 H 540 V 201.6 H 405 Z"
         id="path639" /></clipPath><clipPath
       clipPathUnits="userSpaceOnUse"
       id="clipPath705"><path
         d="M 443.02,57.02 H 530.5 V 182.59 H 443.02 Z"
         id="path703" /></clipPath><clipPath
       clipPathUnits="userSpaceOnUse"
       id="clipPath519-6"><path
         d="M 270,0 H 405 V 201.6 H 270 Z"
         id="path517-4" /></clipPath><clipPath
       clipPathUnits="userSpaceOnUse"
       id="clipPath637-8"><path
         d="M 405,0 H 540 V 201.6 H 405 Z"
         id="path635-5" /></clipPath></defs><sodipodi:namedview
     id="namedview211"
     pagecolor="#ffffff"
     bordercolor="#666666"
     borderopacity="1.0"
     inkscape:pageshadow="2"
     inkscape:pageopacity="0.0"
     inkscape:pagecheckerboard="0"
     showgrid="false"
     inkscape:zoom="1.2747564"
     inkscape:cx="227.12345"
     inkscape:cy="245.18544"
     inkscape:window-width="1920"
     inkscape:window-height="1001"
     inkscape:window-x="-9"
     inkscape:window-y="-9"
     inkscape:window-maximized="1"
     inkscape:current-layer="g701" /><g
     id="g215"
     inkscape:groupmode="layer"
     inkscape:label="Partial effect"
     transform="matrix(1.3333333,0,0,-1.3333333,0,268)"><g
       id="g217" /><g
       id="g219"><path
         d="M 53.08,57.02 H 121.6"
         style="fill:none;stroke:#000000;stroke-width:0.75;stroke-linecap:round;stroke-linejoin:round;stroke-miterlimit:10;stroke-dasharray:none;stroke-opacity:1"
         id="path221" /><path
         d="M 53.08,57.02 V 52.27"
         style="fill:none;stroke:#000000;stroke-width:0.75;stroke-linecap:round;stroke-linejoin:round;stroke-miterlimit:10;stroke-dasharray:none;stroke-opacity:1"
         id="path223" /><path
         d="M 87.34,57.02 V 52.27"
         style="fill:none;stroke:#000000;stroke-width:0.75;stroke-linecap:round;stroke-linejoin:round;stroke-miterlimit:10;stroke-dasharray:none;stroke-opacity:1"
         id="path227" /><path
         d="M 121.6,57.02 V 52.27"
         style="fill:none;stroke:#000000;stroke-width:0.75;stroke-linecap:round;stroke-linejoin:round;stroke-miterlimit:10;stroke-dasharray:none;stroke-opacity:1"
         id="path231" /><text
         transform="matrix(1,0,0,-1,50.86,39.92)"
         style="font-variant:normal;font-weight:normal;font-size:8px;font-family:Helvetica;-inkscape-font-specification:Helvetica;writing-mode:lr-tb;fill:#000000;fill-opacity:1;fill-rule:nonzero;stroke:none"
         id="text235"><tspan
           x="0"
           y="0"
           id="tspan233">5</tspan></text><text
         transform="matrix(1,0,0,-1,82.89,39.92)"
         style="font-variant:normal;font-weight:normal;font-size:8px;font-family:Helvetica;-inkscape-font-specification:Helvetica;writing-mode:lr-tb;fill:#000000;fill-opacity:1;fill-rule:nonzero;stroke:none"
         id="text243"><tspan
           x="0 4.448"
           y="0"
           sodipodi:role="line"
           id="tspan241">15</tspan></text><text
         transform="matrix(1,0,0,-1,117.15,39.92)"
         style="font-variant:normal;font-weight:normal;font-size:8px;font-family:Helvetica;-inkscape-font-specification:Helvetica;writing-mode:lr-tb;fill:#000000;fill-opacity:1;fill-rule:nonzero;stroke:none"
         id="text251"><tspan
           x="0 4.448"
           y="0"
           sodipodi:role="line"
           id="tspan249">25</tspan></text><path
         d="M 38.02,57.02 H 125.5 V 182.59 H 38.02 Z"
         style="fill:none;stroke:#000000;stroke-width:0.75;stroke-linecap:round;stroke-linejoin:round;stroke-miterlimit:10;stroke-dasharray:none;stroke-opacity:1"
         id="path253" /></g><g
       id="g271"><path
         d="M 38.02,61.67 V 177.94"
         style="fill:none;stroke:#000000;stroke-width:0.75;stroke-linecap:round;stroke-linejoin:round;stroke-miterlimit:10;stroke-dasharray:none;stroke-opacity:1"
         id="path273" /><path
         d="M 38.02,61.67 H 33.26"
         style="fill:none;stroke:#000000;stroke-width:0.75;stroke-linecap:round;stroke-linejoin:round;stroke-miterlimit:10;stroke-dasharray:none;stroke-opacity:1"
         id="path275" /><path
         d="M 38.02,94.89 H 33.26"
         style="fill:none;stroke:#000000;stroke-width:0.75;stroke-linecap:round;stroke-linejoin:round;stroke-miterlimit:10;stroke-dasharray:none;stroke-opacity:1"
         id="path279" /><path
         d="M 38.02,128.11 H 33.26"
         style="fill:none;stroke:#000000;stroke-width:0.75;stroke-linecap:round;stroke-linejoin:round;stroke-miterlimit:10;stroke-dasharray:none;stroke-opacity:1"
         id="path283" /><path
         d="M 38.02,161.33 H 33.26"
         style="fill:none;stroke:#000000;stroke-width:0.75;stroke-linecap:round;stroke-linejoin:round;stroke-miterlimit:10;stroke-dasharray:none;stroke-opacity:1"
         id="path287" /><text
         transform="matrix(1,0,0,-1,14.94,58.8)"
         style="font-variant:normal;font-weight:normal;font-size:8px;font-family:Helvetica;-inkscape-font-specification:Helvetica;writing-mode:lr-tb;fill:#000000;fill-opacity:1;fill-rule:nonzero;stroke:none"
         id="text293"><tspan
           x="0 4.6719999 9.1199999"
           y="0"
           sodipodi:role="line"
           id="tspan291">−40</tspan></text><text
         transform="matrix(1,0,0,-1,24.06,92.02)"
         style="font-variant:normal;font-weight:normal;font-size:8px;font-family:Helvetica;-inkscape-font-specification:Helvetica;writing-mode:lr-tb;fill:#000000;fill-opacity:1;fill-rule:nonzero;stroke:none"
         id="text301"><tspan
           x="0"
           y="0"
           id="tspan299">0</tspan></text><text
         transform="matrix(1,0,0,-1,19.62,125.24)"
         style="font-variant:normal;font-weight:normal;font-size:8px;font-family:Helvetica;-inkscape-font-specification:Helvetica;writing-mode:lr-tb;fill:#000000;fill-opacity:1;fill-rule:nonzero;stroke:none"
         id="text309"><tspan
           x="0 4.448"
           y="0"
           sodipodi:role="line"
           id="tspan307">40</tspan></text><text
         transform="matrix(1,0,0,-1,19.62,158.46)"
         style="font-variant:normal;font-weight:normal;font-size:8px;font-family:Helvetica;-inkscape-font-specification:Helvetica;writing-mode:lr-tb;fill:#000000;fill-opacity:1;fill-rule:nonzero;stroke:none"
         id="text317"><tspan
           x="0 4.448"
           y="0"
           sodipodi:role="line"
           id="tspan315">80</tspan></text></g><g
       id="g323"><g
         id="g325"
         clip-path="url(#clipPath329)"><path
           d="m 41.26,132.9 1.45,-0.74 4.08,-2.12 3.33,-1.8 0.78,-0.43 1.14,-0.63 0.33,-0.19 1.7,-0.96 1.11,-0.65 1.24,-0.74 2,-1.21 0.01,-0.01 1.02,-0.63 0.81,-0.52 0.4,-0.26 3.79,-2.55 0.49,-0.34 0.85,-0.61 0.04,-0.03 1.05,-0.77 0.33,-0.25 0.51,-0.38 0.02,-0.02 1.43,-1.1 0.32,-0.25 2.04,-1.64 0.72,-0.6 0.46,-0.39 2.22,-1.91 1.56,-1.4 0.58,-0.53 0.92,-0.85 1.94,-1.82 0.97,-0.93 0.09,-0.09 5.27,-5.23 25.35,-27.22 7.21,-8 0.12,-0.13 3.32,-3.69 V 99.7 l -3.32,1.56 -0.12,0.06 -7.21,3.44 -25.35,13 -5.27,3.12 -0.09,0.06 -0.97,0.61 -1.94,1.25 -0.92,0.61 -0.58,0.39 -1.56,1.09 -2.22,1.6 -0.46,0.34 -0.72,0.55 -2.04,1.59 -0.32,0.25 -1.43,1.17 -0.02,0.02 -0.51,0.42 -0.33,0.28 -1.05,0.9 -0.04,0.03 -0.85,0.75 -0.49,0.42 -3.79,3.46 -0.4,0.38 -0.81,0.77 -1.02,0.98 -0.01,0.01 -2,1.95 -1.24,1.24 -1.11,1.12 -1.7,1.72 -0.33,0.35 -1.14,1.17 -0.78,0.8 -3.33,3.5 -4.08,4.34 -1.45,1.56 z"
           style="fill:#ffffff;fill-opacity:1;fill-rule:nonzero;stroke:none"
           id="path331" /><path
           d="m 41.26,144.73 1.45,-1.15 4.08,-3.23 3.33,-2.65 0.78,-0.61 1.14,-0.91 0.33,-0.26 1.7,-1.35 1.11,-0.88 1.24,-0.99 2,-1.58 0.01,-0.01 1.02,-0.81 0.81,-0.64 0.4,-0.32 3.79,-3.01 0.49,-0.38 0.85,-0.68 0.04,-0.03 1.05,-0.83 0.33,-0.26 0.51,-0.41 0.02,-0.02 1.43,-1.13 0.32,-0.25 2.04,-1.62 0.72,-0.57 0.46,-0.37 2.22,-1.75 1.56,-1.24 0.58,-0.46 0.92,-0.74 1.94,-1.53 0.97,-0.77 0.09,-0.07 5.27,-4.18 25.35,-20.11 7.21,-5.72 0.12,-0.09 3.32,-2.63"
           style="fill:none;stroke:#0000ff;stroke-width:0.75;stroke-linecap:round;stroke-linejoin:round;stroke-miterlimit:10;stroke-dasharray:none;stroke-opacity:1"
           id="path333" /><path
           d="m 39.26,158.22 0.61,-0.58 8.17,-7.72 2.02,-1.91 2.42,-2.28 0.72,-0.69 0.69,-0.64 1.57,-1.49 0.03,-0.03 1.26,-1.19 2.67,-2.52 0.41,-0.39 0.92,-0.86 0.51,-0.49 0.8,-0.76 4.06,-3.84 0.12,-0.11 0.11,-0.1 0.51,-0.48 0.93,-0.88 0.23,-0.21 0.09,-0.09 1.35,-1.28 1.35,-1.27 0.28,-0.27 0.33,-0.31 2.37,-2.24 0.28,-0.26 0.24,-0.23 1.64,-1.55 1.68,-1.59 0.33,-0.31 0.81,-0.76 0.41,-0.39 2.19,-2.07 0.56,-0.53 6.23,-5.88 0.38,-0.37 8.19,-7.74 15.04,-14.21 7.96,-7.51 0.07,-0.07 2.36,-2.23"
           style="fill:none;stroke:#0000ff;stroke-width:0.75;stroke-linecap:round;stroke-linejoin:round;stroke-miterlimit:10;stroke-dasharray:0, 3;stroke-dashoffset:0;stroke-opacity:1"
           id="path335" /><path
           d="m 43.47,160.33 0.57,-0.58 6.88,-6.99 1,-1.02 0.68,-0.68 0.21,-0.21 0.02,-0.03 3.78,-3.84 0.16,-0.16 1.29,-1.31 0.63,-0.64 1.15,-1.17 1.41,-1.43 0.24,-0.25 1.18,-1.19 3.57,-3.62 1.01,-1.04 1.13,-1.14 0.17,-0.17 0.33,-0.34 0.24,-0.24 0.49,-0.49 0.9,-0.92 0.07,-0.08 0.79,-0.79 0.43,-0.44 1.49,-1.52 0.78,-0.79 0.63,-0.64 0.36,-0.36 2.23,-2.27 0.83,-0.84 0.43,-0.43 1.08,-1.1 1.66,-1.69 3.22,-3.27 3.44,-3.5 3.67,-3.72 4.49,-4.57 16.99,-17.25 6.04,-6.13 0.98,-1 2.06,-2.08 3.82,-3.89"
           style="fill:none;stroke:#0000ff;stroke-width:0.75;stroke-linecap:round;stroke-linejoin:round;stroke-miterlimit:10;stroke-dasharray:4.5, 3;stroke-dashoffset:0;stroke-opacity:1"
           id="path337" /><path
           d="m 45.78,141.37 5.89,-4.55 5.14,-3.97 0.34,-0.26 1.01,-0.78 2.76,-2.13 5.76,-4.45 0.2,-0.15 0.02,-0.01 0.31,-0.25 3.09,-2.38 0.53,-0.41 5.45,-4.2 0.42,-0.33 5.91,-4.56 6.67,-5.15 29.63,-22.86 1.74,-1.34"
           style="fill:none;stroke:#ff0000;stroke-width:0.75;stroke-linecap:round;stroke-linejoin:round;stroke-miterlimit:10;stroke-dasharray:none;stroke-opacity:1"
           id="path339" /><path
           d="m 44.47,155.26 8.66,-8.34 4.29,-4.14 1.11,-1.07 0.15,-0.14 3.8,-3.66 5,-4.82 0.54,-0.52 0.06,-0.06 1.61,-1.56 1.28,-1.23 2.02,-1.95 3.52,-3.39 1.3,-1.25 5.86,-5.65 5.91,-5.7 0.73,-0.7 1.23,-1.19 28.24,-27.22 0.92,-0.89"
           style="fill:none;stroke:#ff0000;stroke-width:0.75;stroke-linecap:round;stroke-linejoin:round;stroke-miterlimit:10;stroke-dasharray:0, 3;stroke-dashoffset:0;stroke-opacity:1"
           id="path341" /><path
           d="m 48.55,156.64 3.26,-3.32 5.38,-5.48 2.77,-2.83 0.76,-0.77 1.12,-1.14 6.21,-6.33 0.5,-0.51 2,-2.03 0.09,-0.09 1.59,-1.63 1.87,-1.9 2.83,-2.89 0.29,-0.29 7.65,-7.79 5.37,-5.48 1.85,-1.88 2.43,-2.48 25.12,-25.59 0.96,-0.97 5.4,-5.5"
           style="fill:none;stroke:#ff0000;stroke-width:0.75;stroke-linecap:round;stroke-linejoin:round;stroke-miterlimit:10;stroke-dasharray:4.5, 3;stroke-dashoffset:0;stroke-opacity:1"
           id="path343" /></g></g><g
       id="g345"><g
         id="g347"
         clip-path="url(#clipPath351)" /></g><g
       id="g353"
       transform="translate(-31.5)"><path
         d="m 180.3,57.02 h 69.53"
         style="fill:none;stroke:#000000;stroke-width:0.75;stroke-linecap:round;stroke-linejoin:round;stroke-miterlimit:10;stroke-dasharray:none;stroke-opacity:1"
         id="path355" /><path
         d="M 180.3,57.02 V 52.27"
         style="fill:none;stroke:#000000;stroke-width:0.75;stroke-linecap:round;stroke-linejoin:round;stroke-miterlimit:10;stroke-dasharray:none;stroke-opacity:1"
         id="path357" /><path
         d="M 215.07,57.02 V 52.27"
         style="fill:none;stroke:#000000;stroke-width:0.75;stroke-linecap:round;stroke-linejoin:round;stroke-miterlimit:10;stroke-dasharray:none;stroke-opacity:1"
         id="path361" /><path
         d="M 249.83,57.02 V 52.27"
         style="fill:none;stroke:#000000;stroke-width:0.75;stroke-linecap:round;stroke-linejoin:round;stroke-miterlimit:10;stroke-dasharray:none;stroke-opacity:1"
         id="path365" /><path
         d="M 173.02,57.02 H 260.5 V 182.59 H 173.02 Z"
         style="fill:none;stroke:#000000;stroke-width:0.75;stroke-linecap:round;stroke-linejoin:round;stroke-miterlimit:10;stroke-dasharray:none;stroke-opacity:1"
         id="path379" /><text
         transform="scale(1,-1)"
         style="font-variant:normal;font-weight:normal;font-size:8px;font-family:Helvetica;-inkscape-font-specification:Helvetica;writing-mode:lr-tb;fill:#000000;fill-opacity:1;fill-rule:nonzero;stroke:none"
         id="text377-7"
         x="173.41452"
         y="-40.502441"><tspan
           sodipodi:role="line"
           id="tspan375-2"
           x="173.41452"
           y="-40.502441">0.003</tspan></text><text
         transform="scale(1,-1)"
         style="font-variant:normal;font-weight:normal;font-size:8px;font-family:Helvetica;-inkscape-font-specification:Helvetica;writing-mode:lr-tb;fill:#000000;fill-opacity:1;fill-rule:nonzero;stroke:none"
         id="text381-9"
         x="205.50453"
         y="-40.502441"><tspan
           sodipodi:role="line"
           id="tspan379-7"
           x="205.50453"
           y="-40.502441">0.03</tspan></text><text
         transform="scale(1,-1)"
         style="font-variant:normal;font-weight:normal;font-size:8px;font-family:Helvetica;-inkscape-font-specification:Helvetica;writing-mode:lr-tb;fill:#000000;fill-opacity:1;fill-rule:nonzero;stroke:none"
         id="text385-1"
         x="239.09451"
         y="-40.502441"><tspan
           x="243.76651 248.21451"
           sodipodi:role="line"
           id="tspan383-8">0.3</tspan></text></g><g
       id="g393"
       transform="translate(-31.5)"><path
         d="M 173.02,61.67 V 177.94"
         style="fill:none;stroke:#000000;stroke-width:0.75;stroke-linecap:round;stroke-linejoin:round;stroke-miterlimit:10;stroke-dasharray:none;stroke-opacity:1"
         id="path395" /><path
         d="m 173.02,61.67 h -4.76"
         style="fill:none;stroke:#000000;stroke-width:0.75;stroke-linecap:round;stroke-linejoin:round;stroke-miterlimit:10;stroke-dasharray:none;stroke-opacity:1"
         id="path397" /><path
         d="m 173.02,94.89 h -4.76"
         style="fill:none;stroke:#000000;stroke-width:0.75;stroke-linecap:round;stroke-linejoin:round;stroke-miterlimit:10;stroke-dasharray:none;stroke-opacity:1"
         id="path401" /><path
         d="m 173.02,128.11 h -4.76"
         style="fill:none;stroke:#000000;stroke-width:0.75;stroke-linecap:round;stroke-linejoin:round;stroke-miterlimit:10;stroke-dasharray:none;stroke-opacity:1"
         id="path405" /><path
         d="m 173.02,161.33 h -4.76"
         style="fill:none;stroke:#000000;stroke-width:0.75;stroke-linecap:round;stroke-linejoin:round;stroke-miterlimit:10;stroke-dasharray:none;stroke-opacity:1"
         id="path409" /></g><g
       id="g445"
       transform="translate(-31.5)"><g
         id="g447"
         clip-path="url(#clipPath451)"><path
           d="m 176.26,132.57 13.21,-3.95 9.38,-3.05 4.74,-1.7 0.75,-0.28 0.76,-0.3 0.07,-0.03 0.31,-0.12 0.85,-0.33 2.6,-1.07 2.05,-0.91 0.25,-0.11 0.12,-0.06 1.43,-0.67 1.09,-0.54 0.1,-0.05 0.78,-0.39 1.45,-0.77 0.75,-0.41 0.28,-0.16 0.36,-0.21 2.22,-1.31 0.37,-0.23 0.63,-0.4 0.5,-0.32 0.81,-0.53 0.32,-0.21 1.64,-1.14 1.42,-1.02 5.65,-4.41 7.95,-6.89 0.1,-0.1 0.79,-0.71 2.21,-2.02 1.01,-0.93 2.59,-2.41 2.56,-2.4 0.21,-0.21 2.56,-2.42 6.13,-5.89 v 29.99 l -6.13,1.87 -2.56,0.8 -0.21,0.07 -2.56,0.83 -2.59,0.87 -1.01,0.34 -2.21,0.78 -0.79,0.29 -0.1,0.03 -7.95,3.17 -5.65,2.73 -1.42,0.78 -1.64,0.95 -0.32,0.18 -0.81,0.5 -0.5,0.31 -0.63,0.39 -0.37,0.25 -2.22,1.48 -0.36,0.26 -0.28,0.2 -0.75,0.53 -1.45,1.07 -0.78,0.59 -0.1,0.07 -1.09,0.85 -1.43,1.13 -0.12,0.1 -0.25,0.2 -2.05,1.69 -2.6,2.22 -0.85,0.73 -0.31,0.27 -0.07,0.07 -0.76,0.67 -0.75,0.67 -4.74,4.29 -9.38,8.81 -13.21,12.77 z"
           style="fill:#ffffff;fill-opacity:1;fill-rule:nonzero;stroke:none"
           id="path453" /><path
           d="m 176.26,150.14 13.21,-8.36 9.38,-5.93 4.74,-3 0.75,-0.47 0.76,-0.48 0.07,-0.05 0.31,-0.2 0.85,-0.53 2.6,-1.65 2.05,-1.29 0.25,-0.16 0.12,-0.08 1.43,-0.9 1.09,-0.69 0.1,-0.06 0.78,-0.5 1.45,-0.91 0.75,-0.48 0.28,-0.18 0.36,-0.23 2.22,-1.4 0.37,-0.23 0.63,-0.4 0.5,-0.32 0.81,-0.51 0.32,-0.2 1.64,-1.04 1.42,-0.9 5.65,-3.57 7.95,-5.03 0.1,-0.06 0.79,-0.5 2.21,-1.4 1.01,-0.64 2.59,-1.64 2.56,-1.61 0.21,-0.14 2.56,-1.62 6.13,-3.87"
           style="fill:none;stroke:#0000ff;stroke-width:0.75;stroke-linecap:round;stroke-linejoin:round;stroke-miterlimit:10;stroke-dasharray:none;stroke-opacity:1"
           id="path455" /><path
           d="m 173.52,165.28 11.63,-10.4 12.49,-11.16 2.34,-2.09 0.14,-0.12 0.68,-0.62 2.26,-2.01 0.06,-0.06 0.08,-0.06 0.65,-0.59 1.95,-1.75 0.11,-0.09 0.17,-0.15 0.19,-0.17 0.84,-0.75 1.51,-1.35 v 0 l 2.88,-2.58 0.48,-0.43 h 0.01 l 0.53,-0.48 1.82,-1.63 1.46,-1.3 0.21,-0.19 0.55,-0.48 1.2,-1.08 1.04,-0.93 0.03,-0.02 0.17,-0.16 1.95,-1.74 0.75,-0.67 2.12,-1.89 0.58,-0.52 2.04,-1.83 4.31,-3.85 2.64,-2.35 3.01,-2.7 0.26,-0.23 2.31,-2.07 1.08,-0.95 3.69,-3.3 1.07,-0.96 3.79,-3.38"
           style="fill:none;stroke:#0000ff;stroke-width:0.75;stroke-linecap:round;stroke-linejoin:round;stroke-miterlimit:10;stroke-dasharray:0, 3;stroke-dashoffset:0;stroke-opacity:1"
           id="path457" /><path
           d="m 180.63,165.05 6.04,-6.98 4.45,-5.15 1.52,-1.76 1.87,-2.16 1.03,-1.19 0.47,-0.55 1.76,-2.03 0.02,-0.02 2.98,-3.45 0.4,-0.46 0.62,-0.72 0.16,-0.19 1.03,-1.19 0.93,-1.07 0.11,-0.13 0.14,-0.17 0.44,-0.5 2.76,-3.19 0.39,-0.46 0.82,-0.94 0.3,-0.34 2.69,-3.11 0.32,-0.38 0.21,-0.24 2.54,-2.94 0.2,-0.23 0.13,-0.15 2.18,-2.52 0.88,-1.02 0.81,-0.93 0.11,-0.14 0.04,-0.04 0.21,-0.24 1.56,-1.8 2.08,-2.42 4.29,-4.95 1.96,-2.27 1.11,-1.29 2.32,-2.68 1.94,-2.24 0.45,-0.52 v 0 l 8.85,-10.24"
           style="fill:none;stroke:#0000ff;stroke-width:0.75;stroke-linecap:round;stroke-linejoin:round;stroke-miterlimit:10;stroke-dasharray:4.5, 3;stroke-dashoffset:0;stroke-opacity:1"
           id="path459" /><path
           d="m 195.26,137 5.43,-3.66 1.35,-0.9 8.57,-5.78 0.16,-0.11 1.18,-0.79 2.01,-1.36 2.67,-1.8 0.96,-0.64 1.44,-0.97 1.22,-0.82 2.1,-1.41 1.7,-1.16 0.84,-0.56 2.84,-1.91 11.37,-7.66 5.29,-3.57 1.92,-1.28"
           style="fill:none;stroke:#ff0000;stroke-width:0.75;stroke-linecap:round;stroke-linejoin:round;stroke-miterlimit:10;stroke-dasharray:none;stroke-opacity:1"
           id="path461" /><path
           d="m 189.72,154.03 9.08,-10.05 1.03,-1.14 4.17,-4.62 1.03,-1.15 2.91,-3.21 0.22,-0.25 0.11,-0.12 0.24,-0.26 1.11,-1.23 5.36,-5.94 1.72,-1.9 1.68,-1.86 2.03,-2.26 3.79,-4.19 2.29,-2.53 3.64,-4.03 2.3,-2.55 6.54,-7.25 3.72,-4.12"
           style="fill:none;stroke:#ff0000;stroke-width:0.75;stroke-linecap:round;stroke-linejoin:round;stroke-miterlimit:10;stroke-dasharray:0, 3;stroke-dashoffset:0;stroke-opacity:1"
           id="path463" /><path
           d="m 188.67,151.79 1.73,-2.07 1.63,-1.96 1.44,-1.73 3.44,-4.11 3.86,-4.62 1.46,-1.76 0.65,-0.76 2.79,-3.35 1.25,-1.5 1.17,-1.39 0.75,-0.9 4.9,-5.87 0.8,-0.96 2.69,-3.22 3.64,-4.36 0.39,-0.47 3.7,-4.43 4.5,-5.39 4.99,-5.97 2.42,-2.9"
           style="fill:none;stroke:#ff0000;stroke-width:0.75;stroke-linecap:round;stroke-linejoin:round;stroke-miterlimit:10;stroke-dasharray:4.5, 3;stroke-dashoffset:0;stroke-opacity:1"
           id="path465" /></g></g><g
       id="g467"><g
         id="g469"
         clip-path="url(#clipPath473)" /></g><g
       id="g475"
       transform="translate(-61.5)"><path
         d="m 311.93,57.02 h 76.8"
         style="fill:none;stroke:#000000;stroke-width:0.75;stroke-linecap:round;stroke-linejoin:round;stroke-miterlimit:10;stroke-dasharray:none;stroke-opacity:1"
         id="path477" /><path
         d="M 311.93,57.02 V 52.27"
         style="fill:none;stroke:#000000;stroke-width:0.75;stroke-linecap:round;stroke-linejoin:round;stroke-miterlimit:10;stroke-dasharray:none;stroke-opacity:1"
         id="path479" /><path
         d="M 337.53,57.02 V 52.27"
         style="fill:none;stroke:#000000;stroke-width:0.75;stroke-linecap:round;stroke-linejoin:round;stroke-miterlimit:10;stroke-dasharray:none;stroke-opacity:1"
         id="path483" /><path
         d="M 363.13,57.02 V 52.27"
         style="fill:none;stroke:#000000;stroke-width:0.75;stroke-linecap:round;stroke-linejoin:round;stroke-miterlimit:10;stroke-dasharray:none;stroke-opacity:1"
         id="path487" /><path
         d="M 388.73,57.02 V 52.27"
         style="fill:none;stroke:#000000;stroke-width:0.75;stroke-linecap:round;stroke-linejoin:round;stroke-miterlimit:10;stroke-dasharray:none;stroke-opacity:1"
         id="path491" /><text
         transform="matrix(1,0,0,-1,306.37,39.92)"
         style="font-variant:normal;font-weight:normal;font-size:8px;font-family:Helvetica;-inkscape-font-specification:Helvetica;writing-mode:lr-tb;fill:#000000;fill-opacity:1;fill-rule:nonzero;stroke:none"
         id="text495"><tspan
           x="0 4.448 6.6719999"
           y="0"
           sodipodi:role="line"
           id="tspan493">3.6</tspan></text><text
         transform="matrix(1,0,0,-1,331.97,39.92)"
         style="font-variant:normal;font-weight:normal;font-size:8px;font-family:Helvetica;-inkscape-font-specification:Helvetica;writing-mode:lr-tb;fill:#000000;fill-opacity:1;fill-rule:nonzero;stroke:none"
         id="text499"><tspan
           x="0 4.448 6.6719999"
           y="0"
           sodipodi:role="line"
           id="tspan497">3.8</tspan></text><text
         transform="matrix(1,0,0,-1,357.57,39.92)"
         style="font-variant:normal;font-weight:normal;font-size:8px;font-family:Helvetica;-inkscape-font-specification:Helvetica;writing-mode:lr-tb;fill:#000000;fill-opacity:1;fill-rule:nonzero;stroke:none"
         id="text503"><tspan
           x="0 4.448 6.6719999"
           y="0"
           sodipodi:role="line"
           id="tspan501">4.0</tspan></text><text
         transform="matrix(1,0,0,-1,383.17,39.92)"
         style="font-variant:normal;font-weight:normal;font-size:8px;font-family:Helvetica;-inkscape-font-specification:Helvetica;writing-mode:lr-tb;fill:#000000;fill-opacity:1;fill-rule:nonzero;stroke:none"
         id="text507"><tspan
           x="0 4.448 6.6719999"
           y="0"
           sodipodi:role="line"
           id="tspan505">4.2</tspan></text><path
         d="M 308.02,57.02 H 395.5 V 182.59 H 308.02 Z"
         style="fill:none;stroke:#000000;stroke-width:0.75;stroke-linecap:round;stroke-linejoin:round;stroke-miterlimit:10;stroke-dasharray:none;stroke-opacity:1"
         id="path509" /></g><g
       id="g523"
       transform="translate(-61.5)"><path
         d="M 308.02,61.67 V 177.94"
         style="fill:none;stroke:#000000;stroke-width:0.75;stroke-linecap:round;stroke-linejoin:round;stroke-miterlimit:10;stroke-dasharray:none;stroke-opacity:1"
         id="path525" /><path
         d="m 308.02,61.67 h -4.76"
         style="fill:none;stroke:#000000;stroke-width:0.75;stroke-linecap:round;stroke-linejoin:round;stroke-miterlimit:10;stroke-dasharray:none;stroke-opacity:1"
         id="path527" /><path
         d="m 308.02,94.89 h -4.76"
         style="fill:none;stroke:#000000;stroke-width:0.75;stroke-linecap:round;stroke-linejoin:round;stroke-miterlimit:10;stroke-dasharray:none;stroke-opacity:1"
         id="path531" /><path
         d="m 308.02,128.11 h -4.76"
         style="fill:none;stroke:#000000;stroke-width:0.75;stroke-linecap:round;stroke-linejoin:round;stroke-miterlimit:10;stroke-dasharray:none;stroke-opacity:1"
         id="path535" /><path
         d="m 308.02,161.33 h -4.76"
         style="fill:none;stroke:#000000;stroke-width:0.75;stroke-linecap:round;stroke-linejoin:round;stroke-miterlimit:10;stroke-dasharray:none;stroke-opacity:1"
         id="path539" /></g><g
       id="g575"
       transform="translate(-61.5)"><g
         id="g577"
         clip-path="url(#clipPath581)"><path
           d="m 311.26,110.25 4.96,1.05 1.61,0.33 6.69,1.29 2.44,0.44 5.49,0.88 0.08,0.01 1.27,0.18 3.34,0.4 0.05,0.01 1.6,0.15 1.98,0.16 2.6,0.12 1.48,0.03 h 0.92 l 1.17,-0.02 0.99,-0.04 4.16,-0.37 0.77,-0.11 0.53,-0.07 1.66,-0.29 0.57,-0.11 2.52,-0.57 1.22,-0.32 0.93,-0.25 2.1,-0.63 0.68,-0.22 0.06,-0.02 0.36,-0.12 0.96,-0.32 1.25,-0.44 0.7,-0.25 1.86,-0.7 2.24,-0.87 1.25,-0.51 1.22,-0.51 4.93,-2.13 1.88,-0.84 4.46,-2.04 8.02,-3.8 v 34 l -8.02,-1.65 -4.46,-0.85 -1.88,-0.33 -4.93,-0.81 -1.22,-0.18 -1.25,-0.17 -2.24,-0.27 -1.86,-0.2 -0.7,-0.06 -1.25,-0.11 -0.96,-0.06 -0.36,-0.02 -0.06,-0.01 -0.68,-0.03 -2.1,-0.07 -0.93,-0.01 -1.22,0.02 -2.52,0.11 -0.57,0.04 -1.66,0.16 -0.53,0.06 -0.77,0.1 -4.16,0.75 -0.99,0.22 -1.17,0.3 -0.92,0.24 -1.48,0.43 -2.6,0.82 -1.98,0.69 -1.6,0.58 -0.05,0.02 -3.34,1.3 -1.27,0.52 -0.08,0.03 -5.49,2.35 -2.44,1.1 -6.69,3.09 -1.61,0.77 -4.96,2.37 z"
           style="fill:#ffffff;fill-opacity:1;fill-rule:nonzero;stroke:none"
           id="path583" /><path
           d="m 311.26,127.62 4.96,-0.66 1.61,-0.22 6.69,-0.9 2.44,-0.33 5.49,-0.73 0.08,-0.02 1.27,-0.17 3.34,-0.44 0.05,-0.01 1.6,-0.21 1.98,-0.27 2.6,-0.35 1.48,-0.2 0.92,-0.12 1.17,-0.16 0.99,-0.13 4.16,-0.56 0.77,-0.1 0.53,-0.07 1.66,-0.23 0.57,-0.07 2.52,-0.34 1.22,-0.17 0.93,-0.12 2.1,-0.28 0.68,-0.09 0.06,-0.01 0.36,-0.05 0.96,-0.13 1.25,-0.17 0.7,-0.09 1.86,-0.25 2.24,-0.3 1.25,-0.17 1.22,-0.16 4.93,-0.67 1.88,-0.25 4.46,-0.6 8.02,-1.07"
           style="fill:none;stroke:#0000ff;stroke-width:0.75;stroke-linecap:round;stroke-linejoin:round;stroke-miterlimit:10;stroke-dasharray:none;stroke-opacity:1"
           id="path585" /><path
           d="m 293.14,133.41 15.83,-1.68 3.98,-0.42 1.06,-0.11 3.34,-0.36 7.41,-0.78 4.71,-0.5 3.36,-0.36 1.2,-0.12 0.86,-0.09 0.02,-0.01 2.47,-0.26 0.65,-0.07 0.45,-0.04 0.36,-0.04 0.45,-0.05 1.41,-0.15 0.27,-0.03 1.35,-0.14 1.98,-0.21 3.25,-0.34 0.65,-0.07 1.58,-0.17 3.61,-0.38 2.29,-0.25 0.73,-0.07 0.22,-0.03 h 0.03 l 0.31,-0.03 3.01,-0.32 0.97,-0.1 1.85,-0.2 1.14,-0.12 0.94,-0.1 0.07,-0.01 1.57,-0.16 1.4,-0.15 6.28,-0.67 0.43,-0.04 2.41,-0.26 0.68,-0.07 5.09,-0.54 6.53,-0.69"
           style="fill:none;stroke:#0000ff;stroke-width:0.75;stroke-linecap:round;stroke-linejoin:round;stroke-miterlimit:10;stroke-dasharray:0, 3;stroke-dashoffset:0;stroke-opacity:1"
           id="path587" /><path
           d="m 314.68,151.15 3.08,-1.89 0.44,-0.27 0.59,-0.36 2.14,-1.31 3.13,-1.92 4.8,-2.94 0.78,-0.48 6.11,-3.74 0.66,-0.41 0.46,-0.28 1.66,-1.02 0.71,-0.44 0.11,-0.06 0.27,-0.17 1.27,-0.78 0.93,-0.57 0.64,-0.39 0.64,-0.4 0.13,-0.07 1.4,-0.86 0.89,-0.55 2.89,-1.77 2.99,-1.83 1.74,-1.07 3.03,-1.85 0.46,-0.29 0.73,-0.45 2.12,-1.29 0.4,-0.25 1.4,-0.86 1.73,-1.06 1.1,-0.67 0.49,-0.3 2.05,-1.26 0.25,-0.15 0.23,-0.15 3.88,-2.38 h 0.01 l 0.41,-0.25 3.77,-2.31 0.67,-0.41 12.1,-7.42 7.39,-4.53"
           style="fill:none;stroke:#0000ff;stroke-width:0.75;stroke-linecap:round;stroke-linejoin:round;stroke-miterlimit:10;stroke-dasharray:4.5, 3;stroke-dashoffset:0;stroke-opacity:1"
           id="path589" /><path
           d="m 317.15,129.84 9.81,-2.45 9.25,-2.31 2.61,-0.65 1.95,-0.49 1.99,-0.49 1.71,-0.43 1.28,-0.32 1.95,-0.49 7.09,-1.77 4.54,-1.13 0.56,-0.14 0.56,-0.14 9.68,-2.42 1.71,-0.42 2.58,-0.64 6.4,-1.6 7.48,-1.87"
           style="fill:none;stroke:#ff0000;stroke-width:0.75;stroke-linecap:round;stroke-linejoin:round;stroke-miterlimit:10;stroke-dasharray:none;stroke-opacity:1"
           id="path591" /><path
           d="m 315.04,134.96 2.61,-0.72 7.14,-1.97 1.68,-0.47 3,-0.83 8.79,-2.43 0.96,-0.26 2.46,-0.68 0.24,-0.07 3.21,-0.89 2.59,-0.71 0.25,-0.07 4.47,-1.23 9.56,-2.65 1.9,-0.52 5.07,-1.41 2.66,-0.73 2.89,-0.8 1.54,-0.42 6.61,-1.83"
           style="fill:none;stroke:#ff0000;stroke-width:0.75;stroke-linecap:round;stroke-linejoin:round;stroke-miterlimit:10;stroke-dasharray:0, 3;stroke-dashoffset:0;stroke-opacity:1"
           id="path593" /><path
           d="m 315.07,149.4 5.38,-3.74 3.2,-2.21 0.41,-0.29 9.26,-6.42 3.31,-2.3 0.24,-0.17 3.46,-2.39 0.85,-0.6 2.43,-1.68 1.04,-0.72 2.74,-1.9 2.17,-1.51 9.61,-6.67 2.27,-1.57 2.46,-1.71 2.2,-1.52 0.83,-0.58 4.83,-3.35 13.42,-9.31 1.3,-0.9"
           style="fill:none;stroke:#ff0000;stroke-width:0.75;stroke-linecap:round;stroke-linejoin:round;stroke-miterlimit:10;stroke-dasharray:4.5, 3;stroke-dashoffset:0;stroke-opacity:1"
           id="path595" /></g></g><g
       id="g597"><g
         id="g599"
         clip-path="url(#clipPath603)" /></g><g
       id="g605"
       transform="translate(-91.5)"><path
         d="m 451.43,57.02 h 74.96"
         style="fill:none;stroke:#000000;stroke-width:0.75;stroke-linecap:round;stroke-linejoin:round;stroke-miterlimit:10;stroke-dasharray:none;stroke-opacity:1"
         id="path607" /><path
         d="M 451.43,57.02 V 52.27"
         style="fill:none;stroke:#000000;stroke-width:0.75;stroke-linecap:round;stroke-linejoin:round;stroke-miterlimit:10;stroke-dasharray:none;stroke-opacity:1"
         id="path609" /><path
         d="M 481.42,57.02 V 52.27"
         style="fill:none;stroke:#000000;stroke-width:0.75;stroke-linecap:round;stroke-linejoin:round;stroke-miterlimit:10;stroke-dasharray:none;stroke-opacity:1"
         id="path613" /><path
         d="M 511.4,57.02 V 52.27"
         style="fill:none;stroke:#000000;stroke-width:0.75;stroke-linecap:round;stroke-linejoin:round;stroke-miterlimit:10;stroke-dasharray:none;stroke-opacity:1"
         id="path617" /><text
         transform="matrix(1,0,0,-1,446.98,39.92)"
         style="font-variant:normal;font-weight:normal;font-size:8px;font-family:Helvetica;-inkscape-font-specification:Helvetica;writing-mode:lr-tb;fill:#000000;fill-opacity:1;fill-rule:nonzero;stroke:none"
         id="text623"><tspan
           x="0 4.448"
           y="0"
           sodipodi:role="line"
           id="tspan621">50</tspan></text><text
         transform="matrix(1,0,0,-1,474.74,39.92)"
         style="font-variant:normal;font-weight:normal;font-size:8px;font-family:Helvetica;-inkscape-font-specification:Helvetica;writing-mode:lr-tb;fill:#000000;fill-opacity:1;fill-rule:nonzero;stroke:none"
         id="text627"><tspan
           x="0 4.448 8.8959999"
           y="0"
           sodipodi:role="line"
           id="tspan625">150</tspan></text><text
         transform="matrix(1,0,0,-1,504.73,39.92)"
         style="font-variant:normal;font-weight:normal;font-size:8px;font-family:Helvetica;-inkscape-font-specification:Helvetica;writing-mode:lr-tb;fill:#000000;fill-opacity:1;fill-rule:nonzero;stroke:none"
         id="text631"><tspan
           x="0 4.448 8.8959999"
           y="0"
           sodipodi:role="line"
           id="tspan629">250</tspan></text><path
         d="M 443.02,57.02 H 530.5 V 182.59 H 443.02 Z"
         style="fill:none;stroke:#000000;stroke-width:0.75;stroke-linecap:round;stroke-linejoin:round;stroke-miterlimit:10;stroke-dasharray:none;stroke-opacity:1"
         id="path633" /></g><g
       id="g647"
       transform="translate(-91.5)"><path
         d="M 443.02,61.67 V 177.94"
         style="fill:none;stroke:#000000;stroke-width:0.75;stroke-linecap:round;stroke-linejoin:round;stroke-miterlimit:10;stroke-dasharray:none;stroke-opacity:1"
         id="path649" /><path
         d="m 443.02,61.67 h -4.76"
         style="fill:none;stroke:#000000;stroke-width:0.75;stroke-linecap:round;stroke-linejoin:round;stroke-miterlimit:10;stroke-dasharray:none;stroke-opacity:1"
         id="path651" /><path
         d="m 443.02,94.89 h -4.76"
         style="fill:none;stroke:#000000;stroke-width:0.75;stroke-linecap:round;stroke-linejoin:round;stroke-miterlimit:10;stroke-dasharray:none;stroke-opacity:1"
         id="path655" /><path
         d="m 443.02,128.11 h -4.76"
         style="fill:none;stroke:#000000;stroke-width:0.75;stroke-linecap:round;stroke-linejoin:round;stroke-miterlimit:10;stroke-dasharray:none;stroke-opacity:1"
         id="path659" /><path
         d="m 443.02,161.33 h -4.76"
         style="fill:none;stroke:#000000;stroke-width:0.75;stroke-linecap:round;stroke-linejoin:round;stroke-miterlimit:10;stroke-dasharray:none;stroke-opacity:1"
         id="path663" /></g><g
       id="g699"
       transform="translate(-91.5)"><g
         id="g701"
         clip-path="url(#clipPath705)"><path
           d="m 446.26,82.73 2.64,2.52 1.61,1.53 0.21,0.2 4.15,3.9 6.7,6.16 3.65,3.24 5.53,4.67 2.12,1.68 3.11,2.34 0.81,0.58 0.58,0.4 2.39,1.6 0.21,0.13 0.35,0.22 1.46,0.88 2.83,1.55 0.05,0.02 0.15,0.08 0.43,0.22 1.92,0.9 0.11,0.04 0.24,0.11 0.09,0.04 1.28,0.53 0.12,0.05 0.87,0.34 0.14,0.05 1.22,0.45 0.19,0.06 0.95,0.32 1.51,0.48 2.05,0.58 5.61,1.3 0.94,0.19 0.36,0.07 3.81,0.67 2.83,0.44 2.3,0.33 15.48,1.81 v 44.02 l -15.48,-14.74 -2.3,-2.13 -2.83,-2.6 -3.81,-3.4 -0.36,-0.31 -0.94,-0.82 -5.61,-4.7 -2.05,-1.61 -1.51,-1.14 -0.95,-0.7 -0.19,-0.13 -1.22,-0.86 -0.14,-0.1 -0.87,-0.59 -0.12,-0.08 -1.28,-0.84 -0.09,-0.05 -0.24,-0.15 -0.11,-0.07 -1.92,-1.15 -0.43,-0.25 -0.15,-0.08 -0.05,-0.03 -2.83,-1.48 -1.46,-0.68 -0.35,-0.15 -0.21,-0.1 -2.39,-0.97 -0.58,-0.21 -0.81,-0.29 -3.11,-0.99 -2.12,-0.58 -5.53,-1.24 -3.65,-0.67 -6.7,-1.01 -4.15,-0.54 -0.21,-0.02 -1.61,-0.19 -2.64,-0.31 z"
           style="fill:#ffffff;fill-opacity:1;fill-rule:nonzero;stroke:none"
           id="path707" /><path
           d="m 446.26,102.1 2.64,1.42 1.61,0.86 0.21,0.11 4.15,2.21 6.7,3.59 3.65,1.95 5.53,2.96 2.12,1.13 3.11,1.67 0.81,0.43 0.58,0.31 2.39,1.28 0.21,0.11 0.35,0.19 1.46,0.78 2.83,1.51 0.05,0.03 0.15,0.08 0.43,0.23 1.92,1.03 0.11,0.05 0.24,0.13 0.09,0.05 1.28,0.68 0.12,0.07 0.87,0.46 0.14,0.08 1.22,0.65 0.19,0.1 0.95,0.51 1.51,0.81 2.05,1.1 5.61,3 0.94,0.5 0.36,0.19 3.81,2.04 2.83,1.51 2.3,1.23 15.48,8.28"
           style="fill:none;stroke:#0000ff;stroke-width:0.75;stroke-linecap:round;stroke-linejoin:round;stroke-miterlimit:10;stroke-dasharray:none;stroke-opacity:1"
           id="path709" /><path
           d="m 444.68,103.18 2.22,1.36 3.82,2.36 0.3,0.19 3.85,2.37 6.85,4.23 2.74,1.69 6.14,3.79 5.29,3.27 0.96,0.58 0.05,0.03 0.47,0.29 2.39,1.48 0.19,0.12 0.99,0.61 0.84,0.52 0.39,0.24 2.39,1.47 0.39,0.24 0.25,0.16 0.71,0.44 1.06,0.65 0.19,0.12 0.11,0.07 0.39,0.23 1.2,0.74 0.06,0.04 0.42,0.26 0.09,0.06 1.8,1.11 0.19,0.11 3.3,2.04 0.62,0.38 2.07,1.28 0.65,0.4 0.42,0.26 0.78,0.49 2.28,1.4 0.88,0.55 3.66,2.25 1.48,0.92 1.55,0.95 18.15,11.2"
           style="fill:none;stroke:#0000ff;stroke-width:0.75;stroke-linecap:round;stroke-linejoin:round;stroke-miterlimit:10;stroke-dasharray:0, 3;stroke-dashoffset:0;stroke-opacity:1"
           id="path711" /><path
           d="m 445.9,119.16 2.47,0.7 2,0.57 0.48,0.13 3.02,0.86 1.65,0.46 6.5,1.84 4.18,1.18 3.98,1.13 5.8,1.64 0.92,0.26 0.38,0.11 0.5,0.14 1.84,0.52 0.14,0.04 0.25,0.07 0.93,0.26 v 0 l 0.84,0.24 2.78,0.78 0.45,0.13 0.19,0.06 0.84,0.23 0.56,0.16 0.37,0.11 0.19,0.05 0.8,0.23 0.9,0.25 0.06,0.02 0.28,0.08 0.24,0.07 1.98,0.55 2.98,0.85 0.94,0.26 1.34,0.38 0.73,0.21 0.65,0.18 1.4,0.4 1.8,0.51 0.28,0.08 2.39,0.67 1.59,0.45 3.61,1.02 18.13,5.13"
           style="fill:none;stroke:#0000ff;stroke-width:0.75;stroke-linecap:round;stroke-linejoin:round;stroke-miterlimit:10;stroke-dasharray:4.5, 3;stroke-dashoffset:0;stroke-opacity:1"
           id="path713" /><path
           d="m 449.51,104.67 9,4.04 9.33,4.19 5.03,2.26 7.53,3.39 1.15,0.51 1.28,0.58 0.4,0.18 0.73,0.33 0.05,0.02 2.04,0.92 3.54,1.59 4.96,2.22 1.38,0.63 4.66,2.09 4.32,1.94 4.15,1.86 3,1.35"
           style="fill:none;stroke:#ff0000;stroke-width:0.75;stroke-linecap:round;stroke-linejoin:round;stroke-miterlimit:10;stroke-dasharray:none;stroke-opacity:1"
           id="path715" /><path
           d="m 448.46,111.41 10.2,3.81 8.53,3.19 9.66,3.6 3.47,1.3 1.23,0.46 1.3,0.48 0.17,0.06 0.86,0.33 0.37,0.14 2.11,0.78 2.91,1.09 5.48,2.04 0.91,0.35 4.93,1.84 1.49,0.55 0.33,0.13 0.19,0.07 4.67,1.74 1.79,0.67"
           style="fill:none;stroke:#ff0000;stroke-width:0.75;stroke-linecap:round;stroke-linejoin:round;stroke-miterlimit:10;stroke-dasharray:0, 3;stroke-dashoffset:0;stroke-opacity:1"
           id="path717" /><path
           d="m 449.07,123.82 4.8,0.33 5.4,0.36 8.54,0.58 9.97,0.67 h 0.07 l 3.52,0.24 1.24,0.08 0.24,0.02 0.83,0.05 0.61,0.04 2.07,0.14 2.87,0.2 5.32,0.35 1.65,0.12 1.32,0.08 2.47,0.17 0.25,0.02 0.29,0.02 7.3,0.49 1.23,0.08"
           style="fill:none;stroke:#ff0000;stroke-width:0.75;stroke-linecap:round;stroke-linejoin:round;stroke-miterlimit:10;stroke-dasharray:4.5, 3;stroke-dashoffset:0;stroke-opacity:1"
           id="path719" /><path
           d="m 475.13,95.6 h 11.41"
           style="fill:none;stroke:#000000;stroke-width:0.75;stroke-linecap:round;stroke-linejoin:round;stroke-miterlimit:10;stroke-dasharray:none;stroke-opacity:1"
           id="path721" /><path
           d="m 475.13,87.99 h 11.41"
           style="fill:none;stroke:#000000;stroke-width:0.75;stroke-linecap:round;stroke-linejoin:round;stroke-miterlimit:10;stroke-dasharray:0, 3;stroke-dashoffset:0;stroke-opacity:1"
           id="path723" /><path
           d="m 475.13,80.39 h 11.41"
           style="fill:none;stroke:#000000;stroke-width:0.75;stroke-linecap:round;stroke-linejoin:round;stroke-miterlimit:10;stroke-dasharray:4.5, 3;stroke-dashoffset:0;stroke-opacity:1"
           id="path725" /><text
           transform="scale(1,-1)"
           style="font-variant:normal;font-weight:normal;font-size:6px;font-family:Helvetica;-inkscape-font-specification:Helvetica;writing-mode:lr-tb;fill:#000000;fill-opacity:1;fill-rule:nonzero;stroke:none"
           id="text729"
           x="497.94"
           y="-93.440002"><tspan
             x="497.94 501.276 504.612 507.948 511.284 514.78802 518.12402"
             y="-93.440002"
             sodipodi:role="line"
             id="tspan727">1990−95</tspan></text><text
           transform="scale(1,-1)"
           style="font-variant:normal;font-weight:normal;font-size:6px;font-family:Helvetica;-inkscape-font-specification:Helvetica;writing-mode:lr-tb;fill:#000000;fill-opacity:1;fill-rule:nonzero;stroke:none"
           id="text733"
           x="497.94"
           y="-85.839996"><tspan
             x="497.94 501.276 504.612 507.948 511.284 514.78802 518.12402"
             y="-85.839996"
             sodipodi:role="line"
             id="tspan731">2000−05</tspan></text><text
           transform="scale(1,-1)"
           style="font-variant:normal;font-weight:normal;font-size:6px;font-family:Helvetica;-inkscape-font-specification:Helvetica;writing-mode:lr-tb;fill:#000000;fill-opacity:1;fill-rule:nonzero;stroke:none"
           id="text737"
           x="497.94"
           y="-78.230003"><tspan
             x="497.94 501.276 504.612 507.948 511.284 514.78802 518.12402"
             y="-78.230003"
             sodipodi:role="line"
             id="tspan735">2010−15</tspan></text><path
           d="m 475.13,70.68 h 11.41"
           style="fill:none;stroke:#0000ff;stroke-width:0.75;stroke-linecap:round;stroke-linejoin:round;stroke-miterlimit:10;stroke-dasharray:none;stroke-opacity:1"
           id="path739" /><path
           d="m 475.13,63.08 h 11.41"
           style="fill:none;stroke:#ff0000;stroke-width:0.75;stroke-linecap:round;stroke-linejoin:round;stroke-miterlimit:10;stroke-dasharray:none;stroke-opacity:1"
           id="path741" /><text
           transform="scale(1,-1)"
           style="font-variant:normal;font-weight:normal;font-size:6px;font-family:Helvetica;-inkscape-font-specification:Helvetica;writing-mode:lr-tb;fill:#000000;fill-opacity:1;fill-rule:nonzero;stroke:none"
           id="text745"
           x="497.94"
           y="-68.529999"><tspan
             x="497.94 501.94199 505.27798 508.61401 511.95001 513.28204 516.28204 517.61401 520.61401 521.94604 525.28204"
             y="-68.529999"
             sodipodi:role="line"
             id="tspan743">Subdivision</tspan></text><text
           transform="scale(1,-1)"
           style="font-variant:normal;font-weight:normal;font-size:6px;font-family:Helvetica;-inkscape-font-specification:Helvetica;writing-mode:lr-tb;fill:#000000;fill-opacity:1;fill-rule:nonzero;stroke:none"
           id="text749"
           x="497.94"
           y="-60.919998"><tspan
             x="497.94 501.94199 504.94199 508.27802 510.276 513.612 516.948 518.28003 521.61603"
             y="-60.919998"
             sodipodi:role="line"
             id="tspan747">Ecoregion</tspan></text></g></g><text
       xml:space="preserve"
       style="font-size:8px;line-height:1.25;font-family:sans-serif;stroke-width:0.75"
       x="349.02335"
       y="-17.461765"
       id="text35648-5"
       transform="scale(1,-1)"><tspan
         sodipodi:role="line"
         id="tspan35646-5"
         style="font-size:8px;stroke-width:0.75"
         x="349.02335"
         y="-17.461765"><tspan
           style="font-style:normal;font-variant:normal;font-weight:normal;font-stretch:normal;font-size:8px;font-family:helvetica;-inkscape-font-specification:helvetica"
           id="tspan44460-5">(tonnes per km</tspan><tspan
           style="font-size:65%;baseline-shift:super"
           id="tspan66361">2 </tspan><tspan
           id="tspan46562-9"
           style="font-style:normal;font-variant:normal;font-weight:normal;font-stretch:normal;font-size:8px;font-family:helvetica;-inkscape-font-specification:helvetica;baseline-shift:baseline">per year)</tspan></tspan></text><g
       id="g513"
       transform="translate(-60.844054,4.3724543)"><g
         id="g515"
         clip-path="url(#clipPath519-6)"><text
           transform="matrix(1,0,0,-1,319.52,20.91)"
           style="font-variant:normal;font-weight:normal;font-size:8px;font-family:Helvetica;-inkscape-font-specification:Helvetica;writing-mode:lr-tb;fill:#000000;fill-opacity:1;fill-rule:nonzero;stroke:none"
           id="text523"><tspan
             x="0 6.664 11.112 15.56 20.007999 22.232 24.455999 27.120001 31.568001 36.015999 40.464001 42.240002 46.240002 48.464001 50.240002 54.448002 58.248001 62.695999"
             y="0"
             sodipodi:role="line"
             id="tspan521">Mean trophic level</tspan></text></g></g><g
       id="g631"
       transform="translate(-95.89668,5.4777173)"><g
         id="g633"
         clip-path="url(#clipPath637-8)"><text
           transform="matrix(1,0,0,-1,466.44,20.91)"
           style="font-variant:normal;font-weight:normal;font-size:8px;font-family:Helvetica;-inkscape-font-specification:Helvetica;writing-mode:lr-tb;fill:#000000;fill-opacity:1;fill-rule:nonzero;stroke:none"
           id="text641"><tspan
             x="0 4.888 9.3360004 13.784 17.952 20.176001 22.4 26.848 29.511999 33.959999 38.408001"
             y="0"
             sodipodi:role="line"
             id="tspan639">Zoop. prod.</tspan></text></g></g><text
       xml:space="preserve"
       style="font-size:8px;line-height:1.25;font-family:sans-serif;stroke-width:0.75"
       x="87.426964"
       y="-26.458565"
       id="text25296"
       transform="scale(1,-1)"><tspan
         sodipodi:role="line"
         id="tspan25294"
         style="font-style:normal;font-variant:normal;font-weight:normal;font-stretch:normal;font-size:8px;font-family:helvetica;-inkscape-font-specification:helvetica;text-align:center;text-anchor:middle;stroke-width:0.75"
         x="87.426964"
         y="-26.458565">Temperature </tspan><tspan
         sodipodi:role="line"
         style="font-style:normal;font-variant:normal;font-weight:normal;font-stretch:normal;font-size:8px;font-family:helvetica;-inkscape-font-specification:helvetica;text-align:center;text-anchor:middle;stroke-width:0.75"
         x="87.426964"
         y="-16.365957"
         id="tspan52900">(<tspan
   style="font-style:normal;font-variant:normal;font-weight:normal;font-stretch:normal;font-size:4px;font-family:helvetica;-inkscape-font-specification:helvetica;text-align:center;baseline-shift:super;text-anchor:middle"
   id="tspan26912">o</tspan>C)</tspan></text><text
       transform="scale(1,-1)"
       style="font-variant:normal;font-weight:normal;font-size:8px;font-family:Helvetica;-inkscape-font-specification:Helvetica;writing-mode:lr-tb;fill:#000000;fill-opacity:1;fill-rule:nonzero;stroke:none"
       id="text399"
       x="149.89595"
       y="-24.969271"><tspan
         x="149.89595 154.78395 156.55995 160.55995 165.00795 166.78395 171.23195 175.67995 177.90395 182.11195 186.11195 190.55995 192.33595 196.78395 198.55995 200.78395 203.00795 205.23195 207.81595 212.26395 214.48795"
         y="-24.969271"
         sodipodi:role="line"
         id="tspan397">Fishing exploit. rate</tspan></text><g
       id="g263"
       transform="translate(-1.8548372,-3.7563886)"><text
         transform="matrix(0,1,1,0,0,0)"
         style="font-variant:normal;font-weight:normal;font-size:8px;font-family:Helvetica;-inkscape-font-specification:Helvetica;writing-mode:lr-tb;fill:#000000;fill-opacity:1;fill-rule:nonzero;stroke:none"
         id="text423"
         x="85.236954"
         y="8.2188282"><tspan
           x="85.236954 90.252953 94.700958 97.684952 99.908958 101.68495 106.13296 107.90896 110.13296 114.58096 116.35696 120.80495 127.46896 131.91696 135.91696 139.91696 142.14096 146.58896 148.81296 150.79695 155.24496 159.24496"
           y="8.2188282"
           sodipodi:role="line"
           id="tspan421">Partial biomass effect</tspan></text><text
         xml:space="preserve"
         style="font-size:8px;line-height:1.25;font-family:sans-serif;stroke-width:0.75"
         x="97.512093"
         y="16.448112"
         id="text35648"
         transform="matrix(0,1,1,0,0,0)"><tspan
           sodipodi:role="line"
           id="tspan35646"
           style="font-size:8px;stroke-width:0.75"
           x="97.512093"
           y="16.448112"><tspan
             style="font-style:normal;font-variant:normal;font-weight:normal;font-stretch:normal;font-size:8px;font-family:helvetica;-inkscape-font-specification:helvetica"
             id="tspan44460">(tonnes per km</tspan><tspan
             style="font-size:65%;baseline-shift:super"
             id="tspan84990">2</tspan><tspan
             id="tspan46562"
             style="font-style:normal;font-variant:normal;font-weight:normal;font-stretch:normal;font-size:8px;font-family:helvetica;-inkscape-font-specification:helvetica;baseline-shift:baseline">)</tspan></tspan></text></g><text
       xml:space="preserve"
       style="font-size:8px;line-height:1.25;font-family:sans-serif;white-space:pre;inline-size:0;stroke-width:0.75"
       x="113.57474"
       y="-172.29431"
       id="text23029"
       transform="matrix(1,0,0,-1,-3.2842653,0.54690686)"><tspan
         id="tspan23027"
         style="font-size:8px;stroke-width:0.75"
         x="113.57474"
         y="-172.29431">a)</tspan></text><text
       xml:space="preserve"
       style="font-size:8px;line-height:1.25;font-family:sans-serif;white-space:pre;inline-size:0;stroke-width:0.75"
       x="113.57474"
       y="-172.29431"
       id="text23029-9"
       transform="matrix(1,0,0,-1,101.14199,0.80867186)"><tspan
         id="tspan23027-0"
         style="font-size:8px;stroke-width:0.75"
         x="113.57474"
         y="-172.29431">b)</tspan></text><text
       xml:space="preserve"
       style="font-size:8px;line-height:1.25;font-family:sans-serif;white-space:pre;inline-size:0;stroke-width:0.75"
       x="113.57474"
       y="-172.29431"
       id="text23029-0"
       transform="matrix(1,0,0,-1,206.7244,0.55674586)"><tspan
         id="tspan23027-1"
         style="font-size:8px;stroke-width:0.75"
         x="113.57474"
         y="-172.29431">c)</tspan></text><text
       xml:space="preserve"
       style="font-size:8px;line-height:1.25;font-family:sans-serif;white-space:pre;inline-size:0;stroke-width:0.75"
       x="113.57474"
       y="-172.29431"
       id="text23029-3"
       transform="matrix(1,0,0,-1,312.30684,0.80867186)"><tspan
         id="tspan23027-2"
         style="font-size:8px;stroke-width:0.75"
         x="113.57474"
         y="-172.29431">d)</tspan></text></g></svg>
